<svg id="c213f526-bda0-4776-9584-9cf0101e590f" data-name="Layer 1" xmlns="http://www.w3.org/2000/svg" viewBox="0 0 300 218.22">
  <title>header-logo</title>
  <g>
    <polygon points="5.26 3.76 5.19 3.76 5.19 200.79 276.72 200.79 294.81 211.73 294.81 3.76 5.26 3.76" fill="#fff"/>
    <polygon points="83.74 95.1 107.35 36.5 85.9 36.5 74.6 69.16 63.3 36.5 41.51 36.5 65.12 95.1 83.74 95.1"/>
    <path d="M300.85,286.82c18,0,31.84-13.47,31.84-30.33v-0.17c0-16.88-13.71-30.17-31.67-30.17s-31.84,13.47-31.84,30.34v0.16C269.18,273.52,282.91,286.82,300.85,286.82Zm-12-30.5c0-6.81,4.66-13,12-13s12.21,6.23,12.21,13.13v0.16c0,6.81-4.64,13-12,13s-12.22-6.24-12.22-13.13v-0.17Z" transform="translate(-150 -190.89)"/>
    <polygon points="215.51 94.68 224.82 79.55 234.05 94.68 256.16 94.68 236.46 64.93 255.32 36.5 233.64 36.5 225.16 50.38 216.77 36.5 194.65 36.5 213.53 65.09 193.83 94.68 215.51 94.68"/>
    <path d="M247.46,340H243v10.5h4.38c4,0,6.53-2,6.53-5.31S251.56,340,247.46,340Z" transform="translate(-150 -190.89)" fill="#231f20"/>
    <path d="M302.74,345.65c-4.12,0-7.24,3.32-7.24,7.83s3.16,7.83,7.33,7.83,7.23-3.32,7.23-7.83S306.92,345.65,302.74,345.65Z" transform="translate(-150 -190.89)"/>
    <path d="M150.07,190.89H150V397.78H431.26L450,409.11V190.89H150.07Zm98.08,167.77H243v11H231V330.75h17.42c11,0,17.29,5,17.29,13.73S259.16,358.66,248.15,358.66Zm54.58,11.83c-10,0-17.78-7.43-17.78-17s7.86-17,17.88-17,17.78,7.43,17.78,17S312.77,370.49,302.73,370.49Zm60.59-.73s-17,2-17-12.85V330.75h11.49v21.66c0,5.59,1.24,7.26,5.5,8Zm70.75-63.88H189.34l-23.33,19V205.31H434.06V305.88Z" transform="translate(-150 -190.89)"/>
  </g>
</svg>
